<svg id="svg_elements-logo" xmlns="http://www.w3.org/2000/svg" height="40px" width="232px" viewBox="0 0 232 40" class="_">
    <defs>
        <style>.cls-1 {
            fill: none;
            stroke: #f30;
            stroke-linecap: round;
            stroke-linejoin: round;
            stroke-width: 4px;
            }

            .cls-2 {
            fill: #f30;
            }</style>
    </defs>
    <title>ELEMENTS LOGO</title>
    <path class="cls-1" d="M58,34A12,12,0,1,1,70,22H58" transform="translate(-0.04)" style="stroke-width: 4px; stroke-dashoffset: 1e-05; stroke-dasharray: none;"></path>
    <path class="cls-1" d="M76,34a6,6,0,0,1-6-6V2" transform="translate(-0.04)" style="stroke-width: 4px; stroke-dashoffset: 1e-05; stroke-dasharray: none;"></path>
    <path class="cls-1" d="M90,34a12,12,0,1,1,12-12H90" transform="translate(-0.04)" style="stroke-width: 4px; stroke-dashoffset: 1e-05; stroke-dasharray: none;"></path>
    <path class="cls-1" d="M102,22a12,12,0,0,1,24,0,12,12,0,1,1,24,0" transform="translate(-0.04)" style="stroke-width: 4px; stroke-dashoffset: 1e-05; stroke-dasharray: none;"></path>
    <path class="cls-1" d="M162,34a12,12,0,1,1,12-12H162" transform="translate(-0.04)" style="stroke-width: 4px; stroke-dashoffset: 1e-05; stroke-dasharray: none;"></path>
    <path class="cls-1" d="M174,22a12,12,0,1,1,24,0" transform="translate(-0.04)" style="stroke-width: 4px; stroke-dashoffset: 1e-05; stroke-dasharray: none;"></path>
    <path class="cls-1" d="M204,34a6,6,0,0,1-6-6V2" transform="translate(-0.04)" style="stroke-width: 4px; stroke-dashoffset: 1e-05; stroke-dasharray: none;"></path>
    <path class="cls-1" d="M204,10h-6" transform="translate(-0.04)" style="stroke-width: 4px; stroke-dashoffset: 1e-05; stroke-dasharray: none;"></path>
    <path class="cls-1" d="M218,10a12,12,0,0,0-12,12h24a12,12,0,0,1-12,12h-8" transform="translate(-0.04)" style="stroke-width: 4px; stroke-dashoffset: 1e-05; stroke-dasharray: none;"></path>

    <path class="cls-2" d="M11,23.23C1.66,16.22,5.42,9.7,6.9,7.74h0a.1.1,0,0,0,0-.06.1.1,0,0,0-.1-.1l-.06,0h0a18.12,18.12,0,0,0-6.1,8A10.87,10.87,0,0,0,4,27.57s2.32,1.86,1.15,2.23c-.87.27-2.92-.1-4.79-3h0a.1.1,0,0,0-.19.05.1.1,0,0,0,0,0h0a17.6,17.6,0,0,0,.92,2.51,14.94,14.94,0,0,0,3,4.07C9.68,38.66,22.8,32.15,11,23.23Z" transform="translate(-0.04)"></path>
    <path class="cls-2" d="M23.88,27.06C22.34,38.71,13.17,38.61,10.54,38.33h0a.1.1,0,0,0,0,.19,18.46,18.46,0,0,0,22.11-6.06,14.72,14.72,0,0,0,2-4.55C36.42,20.53,25.81,12.51,23.88,27.06Z" transform="translate(-0.04)"></path>
    <path class="cls-2" d="M35.9,20h0a17.53,17.53,0,0,0-4.59-10c-4.79-5.13-9-3.59-9.71-3.28h0a.1.1,0,0,1-.09-.06h0A4.37,4.37,0,0,0,17.33,4a9.2,9.2,0,0,0-2.8.34c-7.37,2.18-8.8,14.3,4.71,9.88,11.14-3.65,15.44,3.6,16.46,5.81a.1.1,0,0,0,.2,0Z" transform="translate(-0.04)"></path>
</svg>